<svg width="2480" height="794" viewBox="0 0 2480 794" xmlns="http://www.w3.org/2000/svg">
<path d="M1495 180.634C1517.32 191.783 1520.61 200.232 1520.61 200.232C1520.61 200.232 1502.52 161.975 1443.32 161.27C1384.12 160.566 1363.21 184.976 1363.21 184.976C1363.21 184.976 1350.77 196.072 1354.59 227.273C1358.41 258.475 1365.21 276.571 1365.21 276.571C1365.21 276.571 1372.84 299.573 1372.31 304.561C1371.78 309.548 1370.95 311.334 1370.95 311.334C1370.95 311.334 1372.07 311.995 1378.42 311.791C1401.25 311.058 1404.8 292.548 1404.8 292.548C1399.75 295.482 1396.14 293.355 1396.14 293.355C1379.23 280.094 1381.18 253.277 1381.18 253.277C1381.18 253.277 1382.59 231.743 1399.12 230.25C1414.13 228.895 1412.06 251.548 1412.06 251.548C1411.37 272.875 1417.59 281.559 1417.59 281.559C1418.3 260.905 1424.76 257.971 1424.76 257.971C1445.32 248.113 1452.48 232.035 1452.48 232.035C1451.78 244.358 1434.99 257.562 1434.99 257.562C1485.65 264.542 1492.13 252.334 1492.13 252.334C1492.22 258.392 1489.81 261.462 1489.81 261.462C1526.02 225.614 1514.4 199.863 1514.4 199.863C1514.4 199.863 1503.22 184.859 1495 180.634Z" fill="black"/>
<path d="M1495 180.634C1517.32 191.783 1520.61 200.232 1520.61 200.232C1520.61 200.232 1502.52 161.975 1443.32 161.27C1384.12 160.566 1363.21 184.976 1363.21 184.976C1363.21 184.976 1350.77 196.072 1354.59 227.273C1358.41 258.475 1365.21 276.571 1365.21 276.571C1365.21 276.571 1372.84 299.573 1372.31 304.561C1371.78 309.548 1370.95 311.334 1370.95 311.334C1370.95 311.334 1372.07 311.995 1378.42 311.791C1401.25 311.058 1404.8 292.548 1404.8 292.548C1399.75 295.482 1396.14 293.355 1396.14 293.355C1379.23 280.094 1381.18 253.277 1381.18 253.277C1381.18 253.277 1382.59 231.743 1399.12 230.25C1414.13 228.895 1412.06 251.548 1412.06 251.548C1411.37 272.875 1417.59 281.559 1417.59 281.559C1418.3 260.905 1424.76 257.971 1424.76 257.971C1445.32 248.113 1452.48 232.035 1452.48 232.035C1451.78 244.358 1434.99 257.562 1434.99 257.562C1485.65 264.542 1492.13 252.334 1492.13 252.334C1492.22 258.392 1489.81 261.462 1489.81 261.462C1526.02 225.614 1514.4 199.863 1514.4 199.863C1514.4 199.863 1503.22 184.859 1495 180.634Z" stroke="black" stroke-width="0.318728"/>
<path d="M1592.26 119.258C1592.26 119.258 1614.31 84.7896 1654.99 158.3C1686.49 215.208 1697.35 87.6316 1697.35 87.6316C1696.99 38.095 1701.45 4.34968 1738.71 1.06405C1784.62 -2.98288 1791.98 41.4529 1792.08 107.603C1792.15 156.332 1835.14 139.55 1835.14 139.55C1835.14 139.55 1878.39 128.216 1851.62 178.404C1851.62 178.404 1790.62 261.759 1818.26 288.248C1835.74 305.001 1871.61 265.437 1886.86 264.308C1905.2 262.951 1921.16 298.576 1861.49 394.337C1793.7 503.129 1869.48 489.629 1869.48 489.629C1869.48 489.629 2030.5 465.5 1915.5 614.5C1774.86 764.083 1557.01 698.182 1476.79 699.972L1592.26 119.258Z" fill="url(#paint0_linear)"/>
<path d="M1456 96.7254C1456 96.7254 1407.67 52.0983 1359.82 47.9054C1288.51 41.6579 1236.38 74.9823 1197.2 137.468C1112.71 272.226 1141.38 448.827 1197.2 531.124C1253.03 613.421 1313.95 685.254 1463.38 699.644C1639.11 709.032 1748.25 515.447 1748.25 515.447C1748.25 515.447 1776.44 468.505 1741.68 463.811C1677.74 467.955 1674.08 429.75 1679.62 410.847C1685.9 389.366 1702.66 360.461 1736.98 294.82C1789.28 189.538 1689.21 229.112 1689.21 229.112C1689.21 229.112 1652.4 250.695 1618.57 242.245C1584.74 233.796 1615.68 153.748 1618.57 127.053C1621.92 96.1659 1594.23 41.2437 1540.58 92.0312C1489.71 140.185 1456 96.7254 1456 96.7254Z" fill="url(#paint1_linear)"/>
<path d="M1865.94 417.277C1819.04 534.147 1957.17 325.366 1883.25 408.548C1809.34 491.729 1930.91 408.254 1903.9 374.564C1876.88 340.875 1836.49 525.592 1883.39 408.721C1930.29 291.85 1805.9 517.757 1879.81 434.575C1953.73 351.394 1856 375.459 1883.01 409.148C1910.03 442.837 1912.84 300.406 1865.94 417.277Z" fill="url(#paint2_linear)"/>
<path d="M1673.98 153.908C1679.48 114.932 1634.26 120.1 1664.58 140.442C1694.89 160.783 1633.59 84.1445 1658.42 143.463C1683.24 202.781 1669.94 101.161 1664.45 140.137C1658.96 179.113 1691.55 143.791 1661.24 123.449C1630.92 103.107 1689.43 199.56 1664.61 140.241C1639.78 80.9232 1668.49 192.884 1673.98 153.908Z" fill="url(#paint3_linear)"/>
<path d="M1837.93 265.528C1869.76 258.347 1843.49 205.15 1843.33 249.29C1843.16 293.429 1870.01 191.543 1838.02 242.864C1806.03 294.184 1875.31 241.845 1843.49 249.026C1811.66 256.207 1854.19 283.316 1854.36 239.176C1854.52 195.037 1811.5 300.573 1843.49 249.253C1875.48 197.932 1806.11 272.709 1837.93 265.528Z" fill="url(#paint4_linear)"/>
<path d="M1884.53 454.482C1811.51 524.113 1987.44 422.787 1901.54 455.141C1815.64 487.497 1941.52 475.145 1928.64 437.868C1915.75 400.592 1828.59 524.964 1901.6 455.333C1974.62 385.701 1805.24 505.978 1891.14 473.623C1977.04 441.268 1888.28 418.223 1901.16 455.499C1914.05 492.775 1957.55 384.851 1884.53 454.482Z" fill="url(#paint5_linear)"/>
<path d="M1683.09 114.054C1693.32 85.4519 1660.08 83.9003 1678.53 102.814C1696.97 121.729 1665.4 56.8256 1673.62 104.342C1681.84 151.859 1688.72 73.9679 1678.48 102.571C1668.25 131.173 1697.32 108.57 1678.87 89.6557C1660.43 70.7415 1686.79 150.184 1678.58 102.668C1670.36 55.1508 1672.86 142.657 1683.09 114.055V114.054Z" fill="url(#paint6_linear)"/>
<path d="M1579.11 658.149L1573.54 697.374C1583.53 696.661 1593.84 695.735 1604.48 694.478L1612.94 661.904L1579.11 658.149Z" fill="url(#paint7_linear)"/>
<path d="M1748.97 589.775C1619.42 589.869 1510.51 633.418 1510.51 633.418C1510.51 633.418 1502.99 658.766 1547.16 665.338C1576.22 669.662 1609.35 679.273 1631.29 690.689C1700.15 679.306 1854.07 677.43 1924.5 617C1900.16 615.575 1871 596.5 1755.15 589.803C1753.09 589.782 1751.03 589.774 1748.97 589.778V589.775Z" fill="url(#paint8_linear)"/>
<path d="M1805 452.29L1511.31 231L1390 411.358L1445.15 625L1748.18 607.066L1805 452.29Z" fill="url(#paint9_linear)"/>
<path d="M1444.52 368.269L1428.52 363.238C1428.52 363.238 1422.43 366.754 1413.5 386L1349.58 341.879C1349.58 341.879 1369.57 318.266 1370.95 311.334L1395.39 296.815L1430.63 305.499L1444.52 368.269Z" fill="url(#paint10_linear)"/>
<path d="M1406.5 303.169C1374.73 302.718 1385.92 262.645 1375.85 237.228L1452.2 207.89L1512.62 230.146C1522.29 251.966 1513.57 262.424 1513.57 262.424C1505.01 272.133 1505.01 293.211 1505.01 293.211C1507.01 306.654 1519.13 326.57 1519.13 326.57C1519.13 326.57 1512.22 330.026 1499.7 332.046C1499.7 332.046 1499.56 336.779 1501.42 340.705C1501.42 340.705 1499.53 344.494 1494.88 344.992C1494.88 344.992 1496.59 349.586 1492.72 356.277C1492.72 356.277 1483.4 356.906 1481.34 363.199C1481.34 363.199 1478.74 367.261 1476.74 373.557C1474.74 379.854 1468.17 385.258 1454.52 376.708C1440.86 368.157 1425.94 351.963 1412.65 337.523C1403.18 327.233 1406.5 303.169 1406.5 303.169Z" fill="url(#paint11_linear)"/>
<path d="M1499.19 249.886C1499.19 249.886 1507.62 252.832 1509.74 256.442C1509.41 259.097 1504.67 262.084 1504.67 262.084C1504.67 262.084 1502.02 260.342 1500.06 256.898C1497.53 255.736 1495.29 254.823 1495.29 254.823L1487.48 251.94L1499.19 249.886Z" fill="url(#paint12_linear)"/>
<path d="M1514.4 199.864C1514.4 199.864 1522.25 207.626 1526.25 216.545C1530.24 225.464 1537.41 233.796 1537.41 233.796C1537.41 233.796 1551.5 248.113 1544.45 264.191C1544.45 264.191 1544.34 253.981 1541.52 248.582C1541.52 248.582 1547.74 268.65 1531.06 275.691C1531.06 275.691 1536.11 270.645 1534.7 257.267C1534.7 257.267 1537.76 266.772 1513.56 284.376C1513.56 284.376 1524.6 268.65 1524.25 258.792C1524.25 258.792 1522.61 271.584 1506.98 282.967C1506.98 282.967 1514.46 271.323 1513.88 262.029C1513.88 262.029 1517.49 254.785 1515.66 246.237C1514.94 242.514 1515.29 243.031 1512.2 229.764L1514.4 199.864Z" fill="url(#paint13_linear)"/>
<path d="M1495 180.634C1517.32 191.783 1520.61 200.232 1520.61 200.232C1520.61 200.232 1502.52 161.975 1443.32 161.27C1384.12 160.566 1363.21 184.976 1363.21 184.976C1363.21 184.976 1350.77 196.072 1354.59 227.273C1358.41 258.475 1365.21 276.571 1365.21 276.571C1365.21 276.571 1372.84 299.573 1372.31 304.561C1371.78 309.548 1370.95 311.334 1370.95 311.334C1370.95 311.334 1372.07 311.995 1378.42 311.791C1401.25 311.058 1404.8 292.548 1404.8 292.548C1399.75 295.482 1396.14 293.355 1396.14 293.355C1379.23 280.094 1381.18 253.277 1381.18 253.277C1381.18 253.277 1382.59 231.743 1399.12 230.25C1414.13 228.895 1412.06 251.548 1412.06 251.548C1411.37 272.875 1417.59 281.559 1417.59 281.559C1418.3 260.905 1424.76 257.971 1424.76 257.971C1445.32 248.113 1452.48 232.035 1452.48 232.035C1451.78 244.358 1434.99 257.562 1434.99 257.562C1485.65 264.542 1492.13 252.334 1492.13 252.334C1492.22 258.392 1489.81 261.462 1489.81 261.462C1526.02 225.614 1514.4 199.863 1514.4 199.863C1514.4 199.863 1503.22 184.859 1495 180.634Z" fill="url(#paint14_linear)"/>
<path d="M1647.78 542.334C1647.78 542.334 1653.5 550.646 1633.9 551.725C1614.35 552.801 1604.43 566.737 1604.43 566.737L1603.74 546.621L1641.81 539.146L1647.78 542.334Z" fill="#EDBF91"/>
<path d="M1410.43 534.224C1410.43 534.224 1425.93 572.302 1492.18 571.308C1570.41 570.134 1567.04 570.88 1590.29 551.481C1609.29 535.626 1645.61 534.323 1653.26 542.745C1663.79 554.33 1631.32 536.227 1608.71 557.669C1608.71 557.669 1594.38 567.408 1640.89 561.215C1653.66 559.516 1641.36 572.247 1604.95 576.471C1593.91 584.921 1533.06 614.729 1533.06 614.729L1427.58 584.921L1384.35 544.082L1410.43 534.224Z" fill="url(#paint15_linear)"/>
<path d="M1344.06 339.669C1344.06 339.669 1342.89 347.787 1327.68 359.597C1327.68 359.597 1296.08 381.639 1285.23 400.58C1274.37 419.52 1260.52 428.471 1251.92 553.734C1251.92 553.734 1250.72 570.877 1249.84 582.118C1248.85 594.894 1240.54 718.174 1240.54 718.174C1288.29 766.209 1352.69 702.904 1432.87 718.174C1428.92 693.714 1421.28 628.728 1427.1 562.413C1450.26 505.349 1424.43 427.125 1424.43 427.125C1423.26 423.188 1420.32 412.497 1420.32 412.497C1423.59 405.608 1425.7 395.273 1425.7 395.273C1381.72 353.939 1344.06 339.669 1344.06 339.669Z" fill="url(#paint16_linear)"/>
<path d="M1386.57 454.795C1371.55 393.586 1320.22 407.95 1320.22 407.95C1320.22 407.95 1287.73 419.876 1284.51 446.442C1280.75 477.424 1300.95 569.9 1300.95 569.9C1301.89 577.41 1332.32 567.974 1354.91 562.331C1377.5 556.689 1408.07 537.584 1408.07 537.584L1386.57 454.795Z" fill="#F2F2F2"/>
<path d="M1386.57 454.795C1371.55 393.586 1320.22 407.95 1320.22 407.95C1320.22 407.95 1284.04 419.685 1284.51 446.442C1284.98 473.199 1310.35 563.328 1310.35 563.328C1310.35 563.328 1332.32 562.811 1354.91 557.168C1377.5 551.525 1408.07 537.584 1408.07 537.584L1386.57 454.795Z" fill="white"/>
<path d="M1738.01 616.05H1559.13C1557.19 616.05 1555.61 617.623 1555.61 619.563V630.375C1555.61 632.315 1557.19 633.888 1559.13 633.888H1738.01C1739.95 633.888 1741.53 632.315 1741.53 630.375V619.563C1741.53 617.623 1739.95 616.05 1738.01 616.05Z" fill="url(#paint17_linear)"/>
<path d="M1803.16 448.665L1745.14 608.866C1744.52 610.583 1745.41 612.459 1747.14 613.055L1756.77 616.38C1758.5 616.976 1760.4 616.068 1761.03 614.35L1819.04 454.149C1819.66 452.432 1818.77 450.556 1817.04 449.96L1807.41 446.635C1805.68 446.039 1803.78 446.947 1803.16 448.665Z" fill="#D5AEFF"/>
<path d="M1752.72 626.23H1556.31C1554.37 626.23 1552.79 627.803 1552.79 629.743V637.739C1552.79 639.679 1554.37 641.251 1556.31 641.251H1752.72C1754.67 641.251 1756.24 639.679 1756.24 637.739V629.743C1756.24 627.803 1754.67 626.23 1752.72 626.23Z" fill="white"/>
<path d="M1811.4 449.61L1743.35 633.691C1742.68 635.511 1743.61 637.531 1745.43 638.203L1752.94 640.973C1754.76 641.645 1756.79 640.715 1757.46 638.895L1825.5 454.814C1826.18 452.994 1825.25 450.974 1823.42 450.302L1815.92 447.532C1814.09 446.86 1812.07 447.79 1811.4 449.61Z" fill="white"/>
<path d="M1649.94 596.378C1649.94 596.378 1653.42 605.205 1645.19 600.073C1637.16 593.589 1609.08 590.736 1609.08 590.736L1627.68 580.778L1649.28 592.727L1649.94 596.378Z" fill="#F4C495"/>
<path d="M1401.25 541.633C1401.25 541.633 1410.64 596.094 1528.92 593.77C1528.92 593.77 1557.63 597.63 1593.51 584.175C1635.33 567.519 1655.86 590.719 1657.16 600.155C1658.46 609.592 1642.45 585.518 1622.87 589.408C1650.44 597.54 1648.58 622.876 1640.81 612.975C1627.54 596.077 1618.67 602.07 1618.67 602.07C1635.78 606.551 1633.35 629.825 1625.33 617.137C1620.14 600.133 1574.41 618.25 1574.41 618.25C1528.36 639.374 1473.86 640.782 1473.86 640.782C1358.74 644.068 1333.37 560.511 1333.37 560.511L1399.11 537.295" fill="url(#paint18_linear)"/>
<path d="M1477.18 278.058C1477.18 278.058 1495.14 274.075 1497.8 279.717C1495.18 288.763 1488.31 294.82 1488.31 294.82C1488.31 294.82 1479.98 286.117 1477.18 278.058Z" fill="white"/>
<path d="M1496.55 278.015C1498.83 278.983 1494.21 293.318 1487.08 294.195C1485.09 291.374 1485.49 289.481 1485.49 289.481C1485.49 289.481 1486.03 277.988 1492.34 277.199C1496.24 277.157 1494.28 277.046 1496.55 278.015Z" fill="url(#paint19_linear)"/>
<path d="M1475.86 277.745C1475.86 277.745 1492.61 274.428 1498.49 279.533C1498.25 281.234 1497.49 282.173 1497.49 282.173" stroke="url(#paint20_linear)" stroke-width="0.5"/>
<path d="M1477.5 279.329C1477.5 279.329 1482.02 289.422 1488.19 295.114" stroke="url(#paint21_linear)" stroke-width="0.3"/>
<path d="M1489.53 287.262C1490.34 287.431 1491.35 286.44 1491.78 285.051C1492.2 283.661 1491.89 282.397 1491.08 282.229C1490.27 282.061 1489.26 283.051 1488.83 284.441C1488.41 285.831 1488.72 287.094 1489.53 287.262Z" fill="black"/>
<path d="M1491.97 343.531C1491.97 343.531 1487.27 339.424 1479.34 339.05" stroke="url(#paint22_linear)" stroke-width="0.5"/>
<path d="M1499.82 327.516C1499.82 327.516 1496.24 325.602 1500.98 326.1C1505.39 326.95 1506.15 327.378 1506.15 327.378" stroke="url(#paint23_linear)" stroke-width="0.5"/>
<path fill-rule="evenodd" clip-rule="evenodd" d="M1240 697C1924.83 697 2480 465.307 2480 179.5V794H0V179.5C0 465.307 555.167 697 1240 697ZM0.0141642 177C0.00472493 177.833 0 178.666 0 179.5V177H0.0141642ZM2479.99 177H2480V179.5C2480 178.666 2480 177.833 2479.99 177Z" fill="white"/>
<defs>
<linearGradient id="paint0_linear" x1="1459.87" y1="353.011" x2="1924.75" y2="274.007" gradientUnits="userSpaceOnUse">
<stop stop-color="#3A155F"/>
<stop offset="1" stop-color="#3E41AE"/>
</linearGradient>
<linearGradient id="paint1_linear" x1="1057.53" y1="254.106" x2="1801.67" y2="477.349" gradientUnits="userSpaceOnUse">
<stop stop-color="#942ABC"/>
<stop offset="1" stop-color="#34379A"/>
</linearGradient>
<linearGradient id="paint2_linear" x1="1848.77" y1="448.468" x2="1907.93" y2="457.41" gradientUnits="userSpaceOnUse">
<stop stop-color="#4E1991"/>
<stop offset="1" stop-color="#3E41AE"/>
</linearGradient>
<linearGradient id="paint3_linear" x1="1674.27" y1="164.419" x2="1663.06" y2="117.018" gradientUnits="userSpaceOnUse">
<stop stop-color="#4B0F72"/>
<stop offset="1" stop-color="#3E41AE"/>
</linearGradient>
<linearGradient id="paint4_linear" x1="1820.31" y1="264.624" x2="1845.98" y2="272.752" gradientUnits="userSpaceOnUse">
<stop stop-color="#4B0F72"/>
<stop offset="1" stop-color="#3E41AE"/>
</linearGradient>
<linearGradient id="paint5_linear" x1="1868.72" y1="474.983" x2="1918.98" y2="489.957" gradientUnits="userSpaceOnUse">
<stop stop-color="#4D2A97"/>
<stop offset="1" stop-color="#3E41AE"/>
</linearGradient>
<linearGradient id="paint6_linear" x1="1681.6" y1="121.98" x2="1678.8" y2="85.2297" gradientUnits="userSpaceOnUse">
<stop stop-color="#4B0F72"/>
<stop offset="1" stop-color="#3E41AE"/>
</linearGradient>
<linearGradient id="paint7_linear" x1="1580.99" y1="707.439" x2="1624.89" y2="641.306" gradientUnits="userSpaceOnUse">
<stop stop-color="#7A3DA9"/>
<stop offset="1" stop-color="#942ABC"/>
</linearGradient>
<linearGradient id="paint8_linear" x1="1510.02" y1="675.719" x2="1929.29" y2="675.719" gradientUnits="userSpaceOnUse">
<stop stop-color="#9045CB"/>
<stop offset="1" stop-color="#942ABC"/>
</linearGradient>
<linearGradient id="paint9_linear" x1="1506.2" y1="333.331" x2="1787.49" y2="550.313" gradientUnits="userSpaceOnUse">
<stop stop-color="#B8F9FF" stop-opacity="0"/>
<stop offset="1" stop-color="#9B47FF" stop-opacity="0.529412"/>
</linearGradient>
<linearGradient id="paint10_linear" x1="1385.08" y1="361.206" x2="1430.58" y2="305.458" gradientUnits="userSpaceOnUse">
<stop stop-color="#FCD6AF"/>
<stop offset="1" stop-color="#F2BB81"/>
</linearGradient>
<linearGradient id="paint11_linear" x1="1465.01" y1="289.394" x2="1567.77" y2="345.675" gradientUnits="userSpaceOnUse">
<stop stop-color="#FBCFA3"/>
<stop offset="1" stop-color="#C7A2E2"/>
</linearGradient>
<linearGradient id="paint12_linear" x1="1491.8" y1="243.372" x2="1523" y2="274.602" gradientUnits="userSpaceOnUse">
<stop stop-color="#06000A"/>
<stop offset="1" stop-color="#1F003A"/>
</linearGradient>
<linearGradient id="paint13_linear" x1="1481.28" y1="191.309" x2="1581.79" y2="272.249" gradientUnits="userSpaceOnUse">
<stop stop-color="#06000A"/>
<stop offset="1" stop-color="#1F003A"/>
</linearGradient>
<linearGradient id="paint14_linear" x1="1377.22" y1="147.197" x2="1545.75" y2="343.217" gradientUnits="userSpaceOnUse">
<stop stop-color="#06000A"/>
<stop offset="1" stop-color="#1F003A"/>
</linearGradient>
<linearGradient id="paint15_linear" x1="1419.57" y1="526.298" x2="1654.93" y2="580.83" gradientUnits="userSpaceOnUse">
<stop stop-color="#F5C89A"/>
<stop offset="1" stop-color="#F7D1AA"/>
</linearGradient>
<linearGradient id="paint16_linear" x1="1378.52" y1="503.582" x2="1475.78" y2="485.766" gradientUnits="userSpaceOnUse">
<stop offset="0.177083" stop-color="white"/>
<stop offset="1" stop-color="#E5CDFF"/>
</linearGradient>
<linearGradient id="paint17_linear" x1="1755.23" y1="581.782" x2="1552.02" y2="639.812" gradientUnits="userSpaceOnUse">
<stop stop-color="#D2C0FF"/>
<stop offset="1" stop-color="#D4D4D4"/>
</linearGradient>
<linearGradient id="paint18_linear" x1="1338.02" y1="559.876" x2="1666.29" y2="633.694" gradientUnits="userSpaceOnUse">
<stop stop-color="#FBCFA3"/>
<stop offset="1" stop-color="#FCD7B2"/>
</linearGradient>
<linearGradient id="paint19_linear" x1="1486.92" y1="286.044" x2="1498.38" y2="292.082" gradientUnits="userSpaceOnUse">
<stop stop-color="#281717"/>
<stop offset="1" stop-color="#302643"/>
</linearGradient>
<linearGradient id="paint20_linear" x1="1475.73" y1="279.305" x2="1498.84" y2="281.303" gradientUnits="userSpaceOnUse">
<stop stop-color="#1A0928"/>
<stop offset="1" stop-color="#2A153B"/>
</linearGradient>
<linearGradient id="paint21_linear" x1="1476.89" y1="287.33" x2="1488.75" y2="294.968" gradientUnits="userSpaceOnUse">
<stop stop-color="#160821"/>
<stop offset="1" stop-color="#2D173E"/>
</linearGradient>
<linearGradient id="paint22_linear" x1="1477.65" y1="338.637" x2="1492.65" y2="343.541" gradientUnits="userSpaceOnUse">
<stop stop-color="#220546"/>
<stop offset="1" stop-color="#3F1F67"/>
</linearGradient>
<linearGradient id="paint23_linear" x1="1496.61" y1="325.063" x2="1506.06" y2="328.803" gradientUnits="userSpaceOnUse">
<stop stop-color="#220645"/>
<stop offset="1" stop-color="#3F1C6A"/>
</linearGradient>
</defs>
</svg>
