<svg width="2480" height="1024" viewBox="0 0 2480 1024" fill="none" xmlns="http://www.w3.org/2000/svg">
<path d="M1184 418.634C1206.32 429.783 1209.61 438.232 1209.61 438.232C1209.61 438.232 1191.52 399.975 1132.32 399.27C1073.12 398.566 1052.21 422.976 1052.21 422.976C1052.21 422.976 1039.77 434.072 1043.59 465.273C1047.41 496.475 1054.21 514.571 1054.21 514.571C1054.21 514.571 1061.84 537.573 1061.31 542.561C1060.78 547.548 1059.95 549.334 1059.95 549.334C1059.95 549.334 1061.07 549.995 1067.42 549.791C1090.25 549.058 1093.8 530.548 1093.8 530.548C1088.75 533.482 1085.14 531.355 1085.14 531.355C1068.23 518.094 1070.18 491.277 1070.18 491.277C1070.18 491.277 1071.59 469.743 1088.12 468.25C1103.13 466.895 1101.06 489.548 1101.06 489.548C1100.37 510.875 1106.59 519.559 1106.59 519.559C1107.3 498.905 1113.76 495.971 1113.76 495.971C1134.32 486.113 1141.48 470.035 1141.48 470.035C1140.78 482.358 1123.99 495.562 1123.99 495.562C1174.65 502.542 1181.13 490.334 1181.13 490.334C1181.22 496.392 1178.81 499.462 1178.81 499.462C1215.02 463.614 1203.4 437.863 1203.4 437.863C1203.4 437.863 1192.22 422.859 1184 418.634Z" fill="black"/>
<path d="M1184 418.634C1206.32 429.783 1209.61 438.232 1209.61 438.232C1209.61 438.232 1191.52 399.975 1132.32 399.27C1073.12 398.566 1052.21 422.976 1052.21 422.976C1052.21 422.976 1039.77 434.072 1043.59 465.273C1047.41 496.475 1054.21 514.571 1054.21 514.571C1054.21 514.571 1061.84 537.573 1061.31 542.561C1060.78 547.548 1059.95 549.334 1059.95 549.334C1059.95 549.334 1061.07 549.995 1067.42 549.791C1090.25 549.058 1093.8 530.548 1093.8 530.548C1088.75 533.482 1085.14 531.355 1085.14 531.355C1068.23 518.094 1070.18 491.277 1070.18 491.277C1070.18 491.277 1071.59 469.743 1088.12 468.25C1103.13 466.895 1101.06 489.548 1101.06 489.548C1100.37 510.875 1106.59 519.559 1106.59 519.559C1107.3 498.905 1113.76 495.971 1113.76 495.971C1134.32 486.113 1141.48 470.035 1141.48 470.035C1140.78 482.358 1123.99 495.562 1123.99 495.562C1174.65 502.542 1181.13 490.334 1181.13 490.334C1181.22 496.392 1178.81 499.462 1178.81 499.462C1215.02 463.614 1203.4 437.863 1203.4 437.863C1203.4 437.863 1192.22 422.859 1184 418.634" stroke="black" stroke-width="0.318728"/>
<path d="M1281.26 357.257C1281.26 357.257 1303.31 322.79 1343.99 396.3C1375.49 453.208 1386.35 325.632 1386.35 325.632C1385.99 276.095 1390.45 242.35 1427.71 239.064C1473.62 235.017 1480.98 279.453 1481.08 345.603C1481.15 394.332 1524.14 377.55 1524.14 377.55C1524.14 377.55 1567.39 366.216 1540.62 416.404C1540.62 416.404 1479.62 499.759 1507.26 526.248C1524.74 543.001 1560.61 503.437 1575.86 502.308C1594.2 500.95 1610.16 536.575 1550.49 632.337C1482.7 741.129 1558.48 727.629 1558.48 727.629C1558.48 727.629 1719.5 703.5 1604.5 852.5C1463.86 1002.08 1246.01 936.182 1165.79 937.972L1281.26 357.257Z" fill="url(#paint0_linear)"/>
<path d="M1145 334.725C1145 334.725 1096.67 290.098 1048.82 285.905C977.509 279.658 925.384 312.982 886.204 375.468C801.707 510.226 830.384 686.827 886.204 769.124C942.025 851.421 1002.95 923.254 1152.38 937.644C1328.11 947.032 1437.25 753.447 1437.25 753.447C1437.25 753.447 1465.44 706.505 1430.68 701.811C1366.74 705.955 1363.08 667.75 1368.62 648.847C1374.9 627.366 1391.66 598.461 1425.98 532.82C1478.28 427.538 1378.21 467.112 1378.21 467.112C1378.21 467.112 1341.4 488.695 1307.57 480.245C1273.74 471.796 1304.68 391.748 1307.57 365.053C1310.92 334.166 1283.23 279.244 1229.58 330.031C1178.71 378.185 1145 334.725 1145 334.725Z" fill="url(#paint1_linear)"/>
<path d="M1554.94 655.277C1508.04 772.148 1646.17 563.366 1572.25 646.548C1498.34 729.729 1619.91 646.254 1592.9 612.565C1565.88 578.876 1525.49 763.592 1572.39 646.721C1619.29 529.85 1494.9 755.757 1568.81 672.575C1642.73 589.394 1545 613.459 1572.01 647.148C1599.03 680.837 1601.84 538.406 1554.94 655.277L1554.94 655.277Z" fill="url(#paint2_linear)"/>
<path d="M1362.98 391.908C1368.48 352.932 1323.26 358.1 1353.58 378.442C1383.89 398.784 1322.59 322.145 1347.42 381.463C1372.24 440.781 1358.94 339.161 1353.45 378.137C1347.96 417.113 1380.55 381.791 1350.24 361.449C1319.92 341.107 1378.43 437.56 1353.61 378.241C1328.78 318.923 1357.49 430.884 1362.98 391.908L1362.98 391.908Z" fill="url(#paint3_linear)"/>
<path d="M1526.93 503.528C1558.76 496.347 1532.49 443.15 1532.33 487.29C1532.16 531.429 1559.01 429.543 1527.02 480.864C1495.03 532.184 1564.32 479.845 1532.49 487.026C1500.67 494.207 1543.19 521.316 1543.36 477.176C1543.52 433.037 1500.5 538.573 1532.49 487.253C1564.48 435.932 1495.11 510.709 1526.93 503.528Z" fill="url(#paint4_linear)"/>
<path d="M1573.53 692.482C1500.51 762.113 1676.44 660.787 1590.54 693.141C1504.64 725.497 1630.52 713.145 1617.64 675.868C1604.75 638.592 1517.59 762.964 1590.6 693.333C1663.62 623.701 1494.24 743.978 1580.14 711.623C1666.04 679.268 1577.28 656.223 1590.16 693.499C1603.05 730.775 1646.55 622.851 1573.53 692.482Z" fill="url(#paint5_linear)"/>
<path d="M1372.09 352.055C1382.32 323.452 1349.08 321.9 1367.53 340.815C1385.97 359.729 1354.4 294.826 1362.62 342.343C1370.84 389.859 1377.72 311.968 1367.48 340.571C1357.25 369.173 1386.32 346.57 1367.87 327.656C1349.43 308.742 1375.79 388.185 1367.58 340.668C1359.36 293.151 1361.86 380.657 1372.09 352.055L1372.09 352.055Z" fill="url(#paint6_linear)"/>
<path d="M1268.11 896.149L1262.54 935.374C1272.53 934.661 1282.84 933.735 1293.48 932.478L1301.94 899.904L1268.11 896.149Z" fill="url(#paint7_linear)"/>
<path d="M1437.97 827.775C1308.42 827.869 1199.51 871.418 1199.51 871.418C1199.51 871.418 1191.99 896.766 1236.16 903.338C1265.22 907.662 1298.35 917.273 1320.29 928.689C1389.15 917.306 1498.5 969 1602 855C1582.5 848.5 1560 834.5 1444.15 827.803C1442.09 827.782 1440.03 827.774 1437.97 827.778V827.775Z" fill="url(#paint8_linear)"/>
<path d="M1494 690.29L1200.31 469L1079 649.358L1134.15 863L1437.18 845.066L1494 690.29Z" fill="url(#paint9_linear)"/>
<path d="M1133.52 606.269L1117.52 601.238C1117.52 601.238 1111.43 604.754 1102.5 624L1038.58 579.879C1038.58 579.879 1058.57 556.266 1059.95 549.334L1084.39 534.815L1119.63 543.499L1133.52 606.269Z" fill="url(#paint10_linear)"/>
<path d="M1095.51 541.169C1063.73 540.718 1074.92 500.645 1064.85 475.228L1141.2 445.89L1201.62 468.146C1211.29 489.966 1202.57 500.424 1202.57 500.424C1194.01 510.133 1194.01 531.211 1194.01 531.211C1196.01 544.654 1208.13 564.57 1208.13 564.57C1208.13 564.57 1201.22 568.026 1188.7 570.046C1188.7 570.046 1188.56 574.779 1190.42 578.705C1190.42 578.705 1188.53 582.494 1183.88 582.992C1183.88 582.992 1185.59 587.586 1181.72 594.277C1181.72 594.277 1172.4 594.906 1170.34 601.199C1170.34 601.199 1167.74 605.261 1165.74 611.557C1163.74 617.854 1157.17 623.258 1143.52 614.708C1129.86 606.157 1114.94 589.963 1101.65 575.523C1092.18 565.233 1095.51 541.169 1095.51 541.169Z" fill="url(#paint11_linear)"/>
<path d="M1188.19 487.886C1188.19 487.886 1196.62 490.832 1198.74 494.442C1198.41 497.097 1193.67 500.084 1193.67 500.084C1193.67 500.084 1191.02 498.342 1189.06 494.898C1186.53 493.736 1184.29 492.823 1184.29 492.823L1176.48 489.94L1188.19 487.886Z" fill="url(#paint12_linear)"/>
<path d="M1203.4 437.864C1203.4 437.864 1211.25 445.626 1215.25 454.545C1219.24 463.464 1226.41 471.796 1226.41 471.796C1226.41 471.796 1240.5 486.113 1233.45 502.191C1233.45 502.191 1233.34 491.981 1230.52 486.582C1230.52 486.582 1236.74 506.65 1220.06 513.691C1220.06 513.691 1225.11 508.645 1223.7 495.267C1223.7 495.267 1226.76 504.772 1202.56 522.376C1202.56 522.376 1213.6 506.65 1213.25 496.792C1213.25 496.792 1211.61 509.584 1195.98 520.967C1195.98 520.967 1203.46 509.323 1202.88 500.029C1202.88 500.029 1206.49 492.785 1204.66 484.237C1203.94 480.514 1204.29 481.031 1201.2 467.764L1203.4 437.864Z" fill="url(#paint13_linear)"/>
<path d="M1184 418.634C1206.32 429.783 1209.61 438.232 1209.61 438.232C1209.61 438.232 1191.52 399.975 1132.32 399.27C1073.12 398.566 1052.21 422.976 1052.21 422.976C1052.21 422.976 1039.77 434.072 1043.59 465.273C1047.41 496.475 1054.21 514.571 1054.21 514.571C1054.21 514.571 1061.84 537.573 1061.31 542.561C1060.78 547.548 1059.95 549.334 1059.95 549.334C1059.95 549.334 1061.07 549.995 1067.42 549.791C1090.25 549.058 1093.8 530.548 1093.8 530.548C1088.75 533.482 1085.14 531.355 1085.14 531.355C1068.23 518.094 1070.18 491.277 1070.18 491.277C1070.18 491.277 1071.59 469.743 1088.12 468.25C1103.13 466.895 1101.06 489.548 1101.06 489.548C1100.37 510.875 1106.59 519.559 1106.59 519.559C1107.3 498.905 1113.76 495.971 1113.76 495.971C1134.32 486.113 1141.48 470.035 1141.48 470.035C1140.78 482.358 1123.99 495.562 1123.99 495.562C1174.65 502.542 1181.13 490.334 1181.13 490.334C1181.22 496.392 1178.81 499.462 1178.81 499.462C1215.02 463.614 1203.4 437.863 1203.4 437.863C1203.4 437.863 1192.22 422.859 1184 418.634Z" fill="url(#paint14_linear)"/>
<path d="M1336.78 780.334C1336.78 780.334 1342.51 788.646 1322.9 789.725C1303.35 790.801 1293.43 804.737 1293.43 804.737L1292.74 784.621L1330.81 777.146L1336.78 780.334Z" fill="#EDBF91"/>
<path d="M1099.43 772.224C1099.43 772.224 1114.93 810.302 1181.18 809.308C1259.41 808.134 1256.04 808.88 1279.29 789.481C1298.29 773.626 1334.61 772.323 1342.26 780.745C1352.79 792.33 1320.32 774.227 1297.71 795.669C1297.71 795.669 1283.38 805.408 1329.89 799.215C1342.66 797.516 1330.36 810.247 1293.95 814.471C1282.91 822.921 1222.06 852.729 1222.06 852.729L1116.58 822.921L1073.35 782.082L1099.43 772.224Z" fill="url(#paint15_linear)"/>
<path d="M1033.06 577.669C1033.06 577.669 1031.89 585.787 1016.68 597.597C1016.68 597.597 985.083 619.639 974.227 638.58C963.37 657.52 949.521 666.471 940.92 791.734C940.92 791.734 939.716 808.877 938.844 820.118C937.853 832.894 929.542 956.174 929.542 956.174C977.286 1004.21 1041.69 940.904 1121.87 956.174C1117.92 931.714 1110.28 866.728 1116.1 800.413C1139.26 743.349 1113.43 665.125 1113.43 665.125C1112.26 661.188 1109.32 650.497 1109.32 650.497C1112.59 643.608 1114.7 633.273 1114.7 633.273C1070.72 591.939 1033.06 577.669 1033.06 577.669Z" fill="url(#paint16_linear)"/>
<path d="M1075.57 692.795C1060.55 631.586 1009.22 645.95 1009.22 645.95C1009.22 645.95 976.731 657.876 973.508 684.442C969.749 715.424 989.953 807.9 989.953 807.9C990.892 815.41 1021.32 805.974 1043.91 800.331C1066.5 794.689 1097.07 775.584 1097.07 775.584L1075.57 692.795Z" fill="#F2F2F2"/>
<path d="M1075.57 692.795C1060.55 631.586 1009.22 645.95 1009.22 645.95C1009.22 645.95 973.038 657.685 973.508 684.442C973.978 711.199 999.35 801.328 999.35 801.328C999.35 801.328 1021.32 800.811 1043.91 795.168C1066.5 789.525 1097.07 775.584 1097.07 775.584L1075.57 692.795Z" fill="white"/>
<path d="M1427.01 854.05H1248.13C1246.19 854.05 1244.61 855.623 1244.61 857.563V868.375C1244.61 870.315 1246.19 871.888 1248.13 871.888H1427.01C1428.95 871.888 1430.53 870.315 1430.53 868.375V857.563C1430.53 855.623 1428.95 854.05 1427.01 854.05Z" fill="url(#paint17_linear)"/>
<path d="M1492.16 686.665L1434.14 846.866C1433.52 848.583 1434.41 850.459 1436.14 851.055L1445.77 854.38C1447.5 854.976 1449.4 854.068 1450.03 852.35L1508.04 692.149C1508.66 690.432 1507.77 688.556 1506.04 687.96L1496.41 684.635C1494.68 684.039 1492.78 684.947 1492.16 686.665Z" fill="#D5AEFF"/>
<path d="M1441.72 864.23H1245.31C1243.37 864.23 1241.79 865.803 1241.79 867.743V875.739C1241.79 877.679 1243.37 879.251 1245.31 879.251H1441.72C1443.67 879.251 1445.24 877.679 1445.24 875.739V867.743C1445.24 865.803 1443.67 864.23 1441.72 864.23Z" fill="white"/>
<path d="M1500.4 687.61L1432.35 871.691C1431.68 873.511 1432.61 875.531 1434.43 876.203L1441.94 878.973C1443.76 879.645 1445.79 878.715 1446.46 876.895L1514.5 692.814C1515.18 690.994 1514.25 688.974 1512.42 688.302L1504.92 685.532C1503.09 684.86 1501.07 685.79 1500.4 687.61Z" fill="white"/>
<path d="M1338.94 834.378C1338.94 834.378 1342.42 843.205 1334.19 838.073C1326.16 831.589 1298.08 828.736 1298.08 828.736L1316.68 818.778L1338.28 830.727L1338.94 834.378Z" fill="#F4C495"/>
<path d="M1090.25 779.633C1090.25 779.633 1099.64 834.094 1217.92 831.77C1217.92 831.77 1246.63 835.63 1282.51 822.175C1324.33 805.519 1344.86 828.719 1346.16 838.155C1347.46 847.592 1331.45 823.518 1311.87 827.408C1339.44 835.54 1337.58 860.876 1329.81 850.975C1316.54 834.077 1307.67 840.07 1307.67 840.07C1324.78 844.551 1322.35 867.825 1314.33 855.137C1309.14 838.133 1263.41 856.25 1263.41 856.25C1217.36 877.374 1162.86 878.782 1162.86 878.782C1047.74 882.068 1022.37 798.511 1022.37 798.511L1088.11 775.295" fill="url(#paint18_linear)"/>
<path d="M1166.18 516.058C1166.18 516.058 1184.14 512.075 1186.8 517.717C1184.18 526.763 1177.31 532.82 1177.31 532.82C1177.31 532.82 1168.98 524.117 1166.18 516.058Z" fill="white"/>
<path d="M1185.55 516.015C1187.83 516.983 1183.21 531.318 1176.08 532.195C1174.09 529.374 1174.49 527.481 1174.49 527.481C1174.49 527.481 1175.03 515.988 1181.34 515.199C1185.24 515.157 1183.28 515.046 1185.55 516.015Z" fill="url(#paint19_linear)"/>
<path d="M1164.86 515.745C1164.86 515.745 1181.61 512.428 1187.49 517.533C1187.25 519.234 1186.49 520.173 1186.49 520.173" stroke="url(#paint20_linear)" stroke-width="0.5"/>
<path d="M1166.5 517.329C1166.5 517.329 1171.02 527.422 1177.19 533.114" stroke="url(#paint21_linear)" stroke-width="0.3"/>
<path d="M1178.53 525.262C1179.34 525.431 1180.35 524.44 1180.78 523.051C1181.2 521.661 1180.89 520.397 1180.08 520.229C1179.27 520.061 1178.26 521.051 1177.83 522.441C1177.41 523.831 1177.72 525.094 1178.53 525.262Z" fill="black"/>
<path d="M1180.97 581.531C1180.97 581.531 1176.27 577.424 1168.34 577.05" stroke="url(#paint22_linear)" stroke-width="0.5"/>
<path d="M1188.82 565.516C1188.82 565.516 1185.24 563.602 1189.98 564.1C1194.39 564.95 1195.15 565.378 1195.15 565.378" stroke="url(#paint23_linear)" stroke-width="0.5"/>
<path fill-rule="evenodd" clip-rule="evenodd" d="M1240 927C1924.83 927 2480 695.307 2480 409.5V1024H0V409.5C0 695.307 555.167 927 1240 927ZM0.0141642 407C0.00472493 407.833 0 408.666 0 409.5V407L0.0141642 407ZM2479.99 407L2480 407V409.5C2480 408.666 2480 407.833 2479.99 407Z" fill="white"/>
<defs>
<linearGradient id="paint0_linear" x1="1148.87" y1="591.011" x2="1613.75" y2="512.007" gradientUnits="userSpaceOnUse">
<stop stop-color="#3A155F"/>
<stop offset="1" stop-color="#3E41AE"/>
</linearGradient>
<linearGradient id="paint1_linear" x1="746.525" y1="492.106" x2="1490.67" y2="715.349" gradientUnits="userSpaceOnUse">
<stop stop-color="#942ABC"/>
<stop offset="1" stop-color="#34379A"/>
</linearGradient>
<linearGradient id="paint2_linear" x1="1537.77" y1="686.468" x2="1596.93" y2="695.41" gradientUnits="userSpaceOnUse">
<stop stop-color="#4E1991"/>
<stop offset="1" stop-color="#3E41AE"/>
</linearGradient>
<linearGradient id="paint3_linear" x1="1363.27" y1="402.419" x2="1352.06" y2="355.018" gradientUnits="userSpaceOnUse">
<stop stop-color="#4B0F72"/>
<stop offset="1" stop-color="#3E41AE"/>
</linearGradient>
<linearGradient id="paint4_linear" x1="1509.31" y1="502.624" x2="1534.98" y2="510.752" gradientUnits="userSpaceOnUse">
<stop stop-color="#4B0F72"/>
<stop offset="1" stop-color="#3E41AE"/>
</linearGradient>
<linearGradient id="paint5_linear" x1="1557.72" y1="712.983" x2="1607.98" y2="727.957" gradientUnits="userSpaceOnUse">
<stop stop-color="#4D2A97"/>
<stop offset="1" stop-color="#3E41AE"/>
</linearGradient>
<linearGradient id="paint6_linear" x1="1370.6" y1="359.98" x2="1367.8" y2="323.23" gradientUnits="userSpaceOnUse">
<stop stop-color="#4B0F72"/>
<stop offset="1" stop-color="#3E41AE"/>
</linearGradient>
<linearGradient id="paint7_linear" x1="1269.99" y1="945.439" x2="1313.89" y2="879.306" gradientUnits="userSpaceOnUse">
<stop stop-color="#7D3BB0"/>
<stop offset="1" stop-color="#942ABC"/>
</linearGradient>
<linearGradient id="paint8_linear" x1="1199.02" y1="913.718" x2="1618.29" y2="913.718" gradientUnits="userSpaceOnUse">
<stop stop-color="#9045CB"/>
<stop offset="1" stop-color="#942ABC"/>
</linearGradient>
<linearGradient id="paint9_linear" x1="1195.2" y1="571.331" x2="1476.49" y2="788.313" gradientUnits="userSpaceOnUse">
<stop stop-color="#B8F9FF" stop-opacity="0"/>
<stop offset="1" stop-color="#9B47FF" stop-opacity="0.529412"/>
</linearGradient>
<linearGradient id="paint10_linear" x1="1074.08" y1="599.206" x2="1119.58" y2="543.458" gradientUnits="userSpaceOnUse">
<stop stop-color="#FCD6AF"/>
<stop offset="1" stop-color="#F2BB81"/>
</linearGradient>
<linearGradient id="paint11_linear" x1="1154.01" y1="527.394" x2="1256.77" y2="583.675" gradientUnits="userSpaceOnUse">
<stop stop-color="#FBCFA3"/>
<stop offset="1" stop-color="#C7A2E2"/>
</linearGradient>
<linearGradient id="paint12_linear" x1="1180.8" y1="481.372" x2="1212" y2="512.602" gradientUnits="userSpaceOnUse">
<stop stop-color="#06000A"/>
<stop offset="1" stop-color="#1F003A"/>
</linearGradient>
<linearGradient id="paint13_linear" x1="1170.28" y1="429.309" x2="1270.79" y2="510.249" gradientUnits="userSpaceOnUse">
<stop stop-color="#06000A"/>
<stop offset="1" stop-color="#1F003A"/>
</linearGradient>
<linearGradient id="paint14_linear" x1="1066.22" y1="385.197" x2="1234.75" y2="581.217" gradientUnits="userSpaceOnUse">
<stop stop-color="#06000A"/>
<stop offset="1" stop-color="#1F003A"/>
</linearGradient>
<linearGradient id="paint15_linear" x1="1108.57" y1="764.298" x2="1343.93" y2="818.83" gradientUnits="userSpaceOnUse">
<stop stop-color="#F5C89A"/>
<stop offset="1" stop-color="#F7D1AA"/>
</linearGradient>
<linearGradient id="paint16_linear" x1="1067.52" y1="741.582" x2="1164.78" y2="723.766" gradientUnits="userSpaceOnUse">
<stop offset="0.177083" stop-color="white"/>
<stop offset="1" stop-color="#E5CDFF"/>
</linearGradient>
<linearGradient id="paint17_linear" x1="1444.23" y1="819.782" x2="1241.02" y2="877.812" gradientUnits="userSpaceOnUse">
<stop stop-color="#D2C0FF"/>
<stop offset="1" stop-color="#D4D4D4"/>
</linearGradient>
<linearGradient id="paint18_linear" x1="1027.02" y1="797.876" x2="1355.29" y2="871.694" gradientUnits="userSpaceOnUse">
<stop stop-color="#FBCFA3"/>
<stop offset="1" stop-color="#FCD7B2"/>
</linearGradient>
<linearGradient id="paint19_linear" x1="1175.92" y1="524.044" x2="1187.38" y2="530.082" gradientUnits="userSpaceOnUse">
<stop stop-color="#281717"/>
<stop offset="1" stop-color="#302643"/>
</linearGradient>
<linearGradient id="paint20_linear" x1="1164.73" y1="517.305" x2="1187.84" y2="519.303" gradientUnits="userSpaceOnUse">
<stop stop-color="#1A0928"/>
<stop offset="1" stop-color="#2A153B"/>
</linearGradient>
<linearGradient id="paint21_linear" x1="1165.89" y1="525.33" x2="1177.75" y2="532.968" gradientUnits="userSpaceOnUse">
<stop stop-color="#160821"/>
<stop offset="1" stop-color="#2D173E"/>
</linearGradient>
<linearGradient id="paint22_linear" x1="1166.65" y1="576.637" x2="1181.65" y2="581.541" gradientUnits="userSpaceOnUse">
<stop stop-color="#220546"/>
<stop offset="1" stop-color="#3F1F67"/>
</linearGradient>
<linearGradient id="paint23_linear" x1="1185.61" y1="563.063" x2="1195.06" y2="566.803" gradientUnits="userSpaceOnUse">
<stop stop-color="#220645"/>
<stop offset="1" stop-color="#3F1C6A"/>
</linearGradient>
</defs>
</svg>
