<svg width="374" height="374" viewBox="0 0 374 374" fill="none" xmlns="http://www.w3.org/2000/svg">
<rect y="56" width="374" height="262" rx="84" fill="url(#paint0_linear)"/>
<path fill-rule="evenodd" clip-rule="evenodd" d="M259.177 262.137C261.495 266.21 266.407 268.113 270.688 266.208C301.112 252.669 322.597 222.815 322.597 187.225C322.597 138.625 282.425 100 233.835 100C215.782 100 198.891 105.332 184.791 114.526C180.739 117.168 179.741 122.54 182.134 126.744C185.205 132.141 192.457 133.32 197.771 130.107C208.251 123.77 220.606 120.112 233.835 120.112C271.75 120.112 302.486 150.159 302.486 187.225C302.486 213.452 287.098 235.939 264.667 246.848C258.958 249.625 256.037 256.619 259.177 262.137ZM234.338 273.999C237.258 273.983 239.627 272.708 241.194 270.777C244.127 267.63 244.807 262.821 242.548 258.899L156.159 108.976C154.364 105.86 151.042 103.941 147.446 103.941C143.85 103.941 140.528 105.86 138.733 108.976L52.3446 258.899C49.5719 263.711 51.225 269.86 56.037 272.632C60.849 275.405 66.9976 273.752 69.7704 268.94L147.446 134.138L154.951 147.161C148.646 159.122 145.072 172.73 145.072 187.225C145.072 235.999 185.423 274 233.835 274C233.873 274 233.91 274 233.948 274C233.99 274 234.031 274 234.072 274C234.118 274 234.164 273.999 234.21 273.999C234.253 273.999 234.295 273.999 234.338 273.999Z" fill="white"/>
<defs>
<linearGradient id="paint0_linear" x1="409" y1="390" x2="72" y2="21" gradientUnits="userSpaceOnUse">
<stop stop-color="#3E41AE"/>
<stop offset="0.973222" stop-color="#942ABC"/>
</linearGradient>
</defs>
</svg>
