<svg width="374" height="374" viewBox="0 0 374 374" fill="none" xmlns="http://www.w3.org/2000/svg">
<rect y="56" width="374" height="262" rx="131" fill="url(#paint0_linear)"/>
<path fill-rule="evenodd" clip-rule="evenodd" d="M266.768 259.504C269.093 263.589 274.028 265.49 278.308 263.549C307.619 250.254 328.272 221.347 328.272 186.911C328.272 139.589 289.16 102 241.877 102C224.525 102 208.274 107.062 194.653 115.809C190.571 118.431 189.559 123.821 191.959 128.037C195.022 133.42 202.25 134.606 207.579 131.45C217.585 125.523 229.323 122.112 241.877 122.112C278.484 122.112 308.16 151.123 308.16 186.911C308.16 212.014 293.559 233.569 272.206 244.203C266.537 247.025 263.636 254.001 266.768 259.504ZM241.877 271.387C244.564 271.387 246.792 270.318 248.362 268.648C252.018 265.571 253.059 260.225 250.59 255.94L167.18 111.187C165.385 108.071 162.063 106.151 158.467 106.151C154.872 106.151 151.55 108.071 149.754 111.187L66.3446 255.94C63.5719 260.752 65.225 266.901 70.037 269.673C74.849 272.446 80.9976 270.793 83.7704 265.981L158.467 136.348L165.112 147.88C158.966 159.529 155.482 172.787 155.482 186.911C155.482 234.407 194.773 271.387 241.877 271.387Z" fill="white"/>
<defs>
<linearGradient id="paint0_linear" x1="409" y1="390" x2="72" y2="21" gradientUnits="userSpaceOnUse">
<stop stop-color="#3E41AE"/>
<stop offset="0.973222" stop-color="#942ABC"/>
</linearGradient>
</defs>
</svg>
