<svg width="261" height="163" viewBox="0 0 261 163" fill="none" xmlns="http://www.w3.org/2000/svg">
<path fill-rule="evenodd" clip-rule="evenodd" d="M260.536 81.6168C260.536 127.429 222.662 162.851 177.615 162.851C132.567 162.851 94.6931 127.429 94.6931 81.6168C94.6931 71.1058 96.6938 61.104 100.327 51.935L91.9634 37.4199L23.4762 156.276C20.0772 162.175 12.5398 164.201 6.64089 160.802C0.742019 157.403 -1.28449 149.866 2.11455 143.967L81.2826 6.57477C83.4832 2.75563 87.5556 0.402134 91.9634 0.402134C96.3712 0.402134 100.444 2.75563 102.644 6.57477L115.027 28.0649C130.317 10.8023 152.824 0 177.615 0C222.882 0 260.536 36.0177 260.536 81.6168ZM235.882 81.6168C235.882 112.793 210.263 137.743 178.484 138.191L128.35 51.1859C138.677 35.2407 156.881 24.6543 177.615 24.6543C209.795 24.6543 235.882 50.1573 235.882 81.6168Z" fill="white"/>
</svg>
