<svg width="374" height="240" viewBox="0 0 374 240" fill="none" xmlns="http://www.w3.org/2000/svg">
<path fill-rule="evenodd" clip-rule="evenodd" d="M286.668 223.269C289.859 228.877 296.624 231.498 302.519 228.875C344.414 210.231 374 169.122 374 120.113C374 53.1883 318.681 0 251.77 0C226.911 0 203.651 7.34192 184.235 20.0025C178.655 23.6405 177.282 31.0382 180.576 36.8273C184.805 44.2591 194.792 45.8833 202.109 41.4587C216.541 32.7315 233.554 27.6945 251.77 27.6945C303.981 27.6945 346.305 69.0714 346.305 120.113C346.305 156.227 325.116 187.193 294.228 202.216C286.366 206.04 282.344 215.67 286.668 223.269ZM252.463 239.603C256.485 239.581 259.746 237.826 261.904 235.166C265.944 230.833 266.88 224.21 263.768 218.81L144.808 12.3601C142.336 8.06996 137.761 5.42625 132.81 5.42625C127.859 5.42625 123.284 8.06996 120.812 12.3601L1.85163 218.81C-1.96656 225.436 0.309847 233.903 6.93613 237.721C13.5624 241.54 22.0293 239.263 25.8475 232.637L132.81 47.0088L143.144 64.9428C134.462 81.4129 129.541 100.152 129.541 120.113C129.541 187.277 185.106 239.605 251.77 239.605C252.001 239.605 252.232 239.604 252.463 239.603Z" fill="white"/>
</svg>
